<svg style="position: absolute; width: 0; height: 0; overflow: hidden;" version="1.1" xmlns="http://www.w3.org/2000/svg" xmlns:xlink="http://www.w3.org/1999/xlink">
<defs>
<symbol id="icon-google-plus2" viewBox="0 0 32 32">
<title>google-plus2</title>
<path class="path1" d="M29 0h-26c-1.65 0-3 1.35-3 3v26c0 1.65 1.35 3 3 3h26c1.65 0 3-1.35 3-3v-26c0-1.65-1.35-3-3-3zM12 24c-4.425 0-8-3.575-8-8s3.575-8 8-8c2.162 0 3.969 0.787 5.363 2.094l-2.175 2.088c-0.594-0.569-1.631-1.231-3.188-1.231-2.731 0-4.963 2.263-4.963 5.050s2.231 5.050 4.963 5.050c3.169 0 4.356-2.275 4.538-3.45h-4.537v-2.744h7.556c0.069 0.4 0.125 0.8 0.125 1.325 0 4.575-3.063 7.819-7.681 7.819zM28 16h-2v2h-2v-2h-2v-2h2v-2h2v2h2v2z"></path>
</symbol>
<symbol id="icon-facebook2" viewBox="0 0 32 32">
<title>facebook2</title>
<path class="path1" d="M29 0h-26c-1.65 0-3 1.35-3 3v26c0 1.65 1.35 3 3 3h13v-14h-4v-4h4v-2c0-3.306 2.694-6 6-6h4v4h-4c-1.1 0-2 0.9-2 2v2h6l-1 4h-5v14h9c1.65 0 3-1.35 3-3v-26c0-1.65-1.35-3-3-3z"></path>
</symbol>
<symbol id="icon-rss2" viewBox="0 0 32 32">
<title>rss2</title>
<path class="path1" d="M29 0h-26c-1.65 0-3 1.35-3 3v26c0 1.65 1.35 3 3 3h26c1.65 0 3-1.35 3-3v-26c0-1.65-1.35-3-3-3zM8.719 25.975c-1.5 0-2.719-1.206-2.719-2.706 0-1.488 1.219-2.712 2.719-2.712 1.506 0 2.719 1.225 2.719 2.712 0 1.5-1.219 2.706-2.719 2.706zM15.544 26c0-2.556-0.994-4.962-2.794-6.762-1.806-1.806-4.2-2.8-6.75-2.8v-3.912c7.425 0 13.475 6.044 13.475 13.475h-3.931zM22.488 26c0-9.094-7.394-16.5-16.481-16.5v-3.912c11.25 0 20.406 9.162 20.406 20.413h-3.925z"></path>
</symbol>
<symbol id="icon-behance2" viewBox="0 0 32 32">
<title>behance2</title>
<path class="path1" d="M12.631 14.019c0.406-0.294 0.6-0.781 0.6-1.456 0-0.375-0.063-0.681-0.194-0.919-0.137-0.238-0.313-0.425-0.544-0.556-0.225-0.137-0.481-0.231-0.775-0.281-0.287-0.056-0.594-0.081-0.906-0.081h-3.294v3.737h3.563c0.625 0.006 1.144-0.144 1.55-0.444z"></path>
<path class="path2" d="M13.188 17.394c-0.463-0.35-1.075-0.525-1.838-0.525h-3.831v4.406h3.756c0.35 0 0.675-0.031 0.988-0.1s0.594-0.175 0.831-0.337c0.238-0.156 0.431-0.369 0.575-0.637s0.213-0.619 0.213-1.038c0-0.825-0.231-1.413-0.694-1.769z"></path>
<path class="path3" d="M29 0h-26c-1.65 0-3 1.35-3 3v26c0 1.65 1.35 3 3 3h26c1.65 0 3-1.35 3-3v-26c0-1.65-1.35-3-3-3zM20.975 8.419h6.481v1.581h-6.481v-1.581zM16.925 21.45c-0.313 0.594-0.738 1.075-1.262 1.45-0.531 0.375-1.137 0.65-1.819 0.831-0.675 0.181-1.375 0.269-2.088 0.269h-7.756v-15.994h7.537c0.762 0 1.456 0.069 2.088 0.2 0.625 0.131 1.162 0.356 1.613 0.662 0.444 0.306 0.794 0.713 1.044 1.219 0.244 0.5 0.369 1.131 0.369 1.875 0 0.806-0.181 1.475-0.55 2.012s-0.906 0.975-1.631 1.319c0.988 0.281 1.713 0.781 2.194 1.487 0.488 0.712 0.725 1.569 0.725 2.569 0.006 0.819-0.15 1.519-0.462 2.1zM29.981 18.975h-8.356c0 0.913 0.313 1.781 0.788 2.25 0.475 0.462 1.163 0.7 2.056 0.7 0.644 0 1.194-0.163 1.663-0.488 0.462-0.325 0.744-0.669 0.85-1.025h2.8c-0.45 1.394-1.131 2.387-2.063 2.988-0.919 0.6-2.044 0.9-3.35 0.9-0.913 0-1.731-0.15-2.469-0.438-0.738-0.294-1.35-0.706-1.869-1.244-0.506-0.538-0.894-1.181-1.175-1.931-0.275-0.744-0.419-1.575-0.419-2.469 0-0.869 0.144-1.675 0.425-2.425 0.288-0.75 0.688-1.4 1.212-1.938 0.525-0.544 1.15-0.975 1.875-1.294 0.725-0.313 1.525-0.469 2.413-0.469 0.981 0 1.837 0.188 2.575 0.575 0.731 0.381 1.331 0.894 1.806 1.537s0.806 1.375 1.019 2.2c0.206 0.813 0.275 1.669 0.219 2.569z"></path>
<path class="path4" d="M24.269 14.494c-0.506 0-0.931 0.088-1.262 0.262s-0.6 0.387-0.806 0.637c-0.206 0.256-0.344 0.525-0.425 0.819-0.081 0.281-0.131 0.538-0.144 0.762h5.175c-0.075-0.813-0.356-1.412-0.731-1.831-0.387-0.425-1.025-0.65-1.806-0.65z"></path>
</symbol>
<symbol id="icon-tumblr2" viewBox="0 0 32 32">
<title>tumblr2</title>
<path class="path1" d="M29 0h-26c-1.65 0-3 1.35-3 3v26c0 1.65 1.35 3 3 3h26c1.65 0 3-1.35 3-3v-26c0-1.65-1.35-3-3-3zM22.869 25.769c-0.944 0.444-1.8 0.756-2.563 0.938-0.762 0.175-1.594 0.269-2.481 0.269-1.012 0-1.606-0.125-2.381-0.381s-1.438-0.619-1.988-1.087c-0.55-0.475-0.925-0.975-1.137-1.506s-0.319-1.3-0.319-2.313v-7.744h-3v-3.125c0.869-0.281 1.875-0.688 2.488-1.213 0.619-0.525 1.119-1.156 1.488-1.894 0.375-0.737 0.631-1.675 0.775-2.813h3.138v5.1h5.113v3.944h-5.106v5.662c0 1.281-0.019 2.019 0.119 2.381s0.475 0.738 0.844 0.95c0.488 0.294 1.050 0.438 1.675 0.438 1.119 0 2.231-0.363 3.337-1.087v3.481z"></path>
</symbol>
</defs>
</svg>
